<?xml version="1.0" encoding="UTF-8" standalone="no"?>
<!-- Uploaded to: SVG Repo, www.svgrepo.com, Generator: SVG Repo Mixer Tools -->

<svg
   width="501.25748"
   height="501.25748"
   viewBox="0 0 40.100598 40.100598"
   fill="none"
   version="1.1"
   id="svg18"
   sodipodi:docname="python-logo.svg"
   inkscape:version="1.2.2 (b0a8486541, 2022-12-01)"
   xmlns:inkscape="http://www.inkscape.org/namespaces/inkscape"
   xmlns:sodipodi="http://sodipodi.sourceforge.net/DTD/sodipodi-0.dtd"
   xmlns="http://www.w3.org/2000/svg"
   xmlns:svg="http://www.w3.org/2000/svg">
  <sodipodi:namedview
     id="namedview20"
     pagecolor="#ffffff"
     bordercolor="#000000"
     borderopacity="0.25"
     inkscape:showpageshadow="2"
     inkscape:pageopacity="0.0"
     inkscape:pagecheckerboard="0"
     inkscape:deskcolor="#d1d1d1"
     showgrid="false"
     inkscape:zoom="0.59"
     inkscape:cx="482.20339"
     inkscape:cy="152.54237"
     inkscape:window-width="1920"
     inkscape:window-height="1011"
     inkscape:window-x="0"
     inkscape:window-y="0"
     inkscape:window-maximized="1"
     inkscape:current-layer="svg18" />
  <g
     id="g242"
     transform="translate(4.0502987,4.1337986)"
     style="fill:#4a4a4a;fill-opacity:1">
    <path
       d="M 15.885,0 C 7.761,0 8.268,3.523 8.268,3.523 l 0.01,3.65 H 16.03 V 8.268 H 5.197 c 0,0 -5.197,-0.59 -5.197,7.608 0,8.196 4.537,7.906 4.537,7.906 h 2.708 v -3.804 c 0,0 -0.146,-4.537 4.465,-4.537 h 7.688 c 0,0 4.32,0.07 4.32,-4.175 V 4.247 C 23.718,4.247 24.374,0 15.885,0 Z M 11.61,2.454 c 0.771,0 1.395,0.624 1.395,1.395 0,0.771 -0.624,1.395 -1.395,1.395 A 1.393,1.393 0 0 1 10.215,3.849 c 0,-0.771 0.624,-1.395 1.395,-1.395 z"
       fill="url(#a)"
       id="path2"
       style="fill:#4a4a4a;fill-opacity:1" />
    <path
       d="m 16.115,31.833 c 8.124,0 7.617,-3.523 7.617,-3.523 l -0.01,-3.65 H 15.97 v -1.095 h 10.832 c 0,0 5.198,0.59 5.198,-7.607 0,-8.197 -4.537,-7.906 -4.537,-7.906 h -2.708 v 3.803 c 0,0 0.146,4.537 -4.465,4.537 h -7.688 c 0,0 -4.32,-0.07 -4.32,4.175 v 7.019 c 0,0 -0.656,4.247 7.833,4.247 z m 4.275,-2.454 a 1.393,1.393 0 0 1 -1.395,-1.395 c 0,-0.77 0.624,-1.394 1.395,-1.394 0.771,0 1.395,0.623 1.395,1.394 0,0.772 -0.624,1.395 -1.395,1.395 z"
       fill="url(#b)"
       id="path4"
       style="fill:#4a4a4a;fill-opacity:1" />
  </g>
  <defs
     id="defs16">
    <linearGradient
       id="a"
       x1="19.075001"
       y1="18.782"
       x2="34.897999"
       y2="34.658001"
       gradientUnits="userSpaceOnUse">
      <stop
         stop-color="#387EB8"
         id="stop6" />
      <stop
         offset="1"
         stop-color="#366994"
         id="stop8" />
    </linearGradient>
    <linearGradient
       id="b"
       x1="28.809"
       y1="28.882"
       x2="45.803001"
       y2="45.162998"
       gradientUnits="userSpaceOnUse">
      <stop
         stop-color="#FFE052"
         id="stop11" />
      <stop
         offset="1"
         stop-color="#FFC331"
         id="stop13" />
    </linearGradient>
  </defs>
</svg>
